<svg width="116" height="31" viewBox="0 0 116 31" fill="none" xmlns="http://www.w3.org/2000/svg">
<path d="M13.4443 18.808C13.4443 15.424 10.9963 13.156 8.7643 11.176C6.9283 9.448 5.4883 8.476 5.4883 6.568C5.4883 5.524 6.2083 4.984 6.9643 4.984C7.7563 4.984 8.3323 5.56 8.3323 6.532V8.26H13.1563V6.712C13.1563 3.184 10.6363 0.52 6.9643 0.52C2.4283 0.52 0.160297 3.76 0.160297 7.252C0.160297 10.528 2.7163 12.904 4.8763 14.704C6.6763 16.36 8.1163 17.62 8.1163 19.312C8.1163 20.464 7.6123 21.112 6.5323 21.112C5.4523 21.112 4.8403 20.356 4.8403 19.312V17.584H0.0162969V19.312C0.0162969 23.236 2.5723 25.54 6.7843 25.54C10.8883 25.54 13.4443 22.588 13.4443 18.808ZM25.7996 19.78V12.544C25.7996 9.124 23.4956 7 20.4716 7C17.4116 7 15.1076 9.124 15.1076 12.544V19.78C15.1076 23.236 17.4116 25.288 20.4716 25.288C23.4956 25.288 25.7996 23.236 25.7996 19.78ZM21.4076 20.644C21.4076 21.292 20.9756 21.796 20.4716 21.796C19.8956 21.796 19.4996 21.292 19.4996 20.644V11.68C19.4996 11.032 19.8956 10.528 20.4716 10.528C20.9756 10.528 21.4076 11.032 21.4076 11.68V20.644ZM38.887 25V7.324H34.387V20.464C34.387 21.148 33.955 21.616 33.415 21.616C32.911 21.616 32.443 21.148 32.443 20.464V7.324H27.907V21.364C27.907 23.704 29.095 25.288 31.219 25.288C32.695 25.288 34.207 24.28 34.819 22.696L34.999 25H38.887ZM52.1769 25V10.96C52.1769 8.584 51.0249 7.036 48.9009 7.036C47.4249 7.036 45.9489 8.044 45.4449 9.628L45.2289 7.324H41.1969V25H45.7329V11.86C45.7329 11.176 46.1649 10.708 46.7049 10.708C47.2089 10.708 47.6409 11.176 47.6409 11.86V25H52.1769ZM65.0725 25V1.024H60.5725V8.476C59.6725 7.54 58.9165 7 57.6925 7C55.7485 7 54.2365 9.016 54.2365 11.284V20.716C54.2365 23.272 55.4245 25.288 57.9805 25.288C59.4565 25.288 60.5725 24.604 61.2925 23.344L61.4725 25H65.0725ZM60.5725 20.464C60.5725 21.148 60.1405 21.616 59.6005 21.616C59.0605 21.616 58.6285 21.148 58.6285 20.464V11.86C58.6285 11.176 59.0605 10.708 59.6005 10.708C60.1405 10.708 60.5725 11.176 60.5725 11.86V20.464ZM80.2412 18.808C80.2412 15.424 77.7932 13.156 75.5612 11.176C73.7252 9.448 72.2852 8.476 72.2852 6.568C72.2852 5.524 73.0052 4.984 73.7612 4.984C74.5532 4.984 75.1292 5.56 75.1292 6.532V8.26H79.9532V6.712C79.9532 3.184 77.4332 0.52 73.7612 0.52C69.2252 0.52 66.9572 3.76 66.9572 7.252C66.9572 10.528 69.5132 12.904 71.6732 14.704C73.4732 16.36 74.9132 17.62 74.9132 19.312C74.9132 20.464 74.4092 21.112 73.3292 21.112C72.2492 21.112 71.6372 20.356 71.6372 19.312V17.584H66.8132V19.312C66.8132 23.236 69.3692 25.54 73.5812 25.54C77.6852 25.54 80.2412 22.588 80.2412 18.808ZM92.8845 21.04V11.608C92.8845 9.052 91.7325 7.036 89.1765 7.036C87.7005 7.036 86.5485 7.72 85.8645 8.98L85.6485 7.324H82.0485V30.508H86.5485V23.848C87.4485 24.784 88.2405 25.324 89.4645 25.324C91.4085 25.324 92.8845 23.308 92.8845 21.04ZM88.4565 20.464C88.4565 21.148 88.0245 21.616 87.5205 21.616C86.9805 21.616 86.5485 21.148 86.5485 20.464V11.86C86.5485 11.176 86.9805 10.708 87.5205 10.708C88.0245 10.708 88.4565 11.176 88.4565 11.86V20.464ZM105.604 19.78V12.544C105.604 9.124 103.3 7 100.276 7C97.2163 7 94.9123 9.124 94.9123 12.544V19.78C94.9123 23.236 97.2163 25.288 100.276 25.288C103.3 25.288 105.604 23.236 105.604 19.78ZM101.212 20.644C101.212 21.292 100.78 21.796 100.276 21.796C99.7003 21.796 99.3043 21.292 99.3043 20.644V11.68C99.3043 11.032 99.7003 10.528 100.276 10.528C100.78 10.528 101.212 11.032 101.212 11.68V20.644ZM115.56 11.14V7.504H113.256V3.508L108.9 4.48V7.504H106.776V11.14H108.72V19.708C108.72 22.156 108.936 23.632 109.548 25H114.192C113.472 23.488 113.256 21.832 113.256 19.708V11.14H115.56Z" fill="white"/>
</svg>